Coordinates
version=1
nRows=10
nColumns=40
inDegrees=yes

Units are S.I. units (second, meters, Newtons, ...)
If the header above contains a line with 'inDegrees', this indicates whether rotational values are in degrees (yes) or radians (no).

endheader
time	pelvis_tilt	pelvis_list	pelvis_rotation	pelvis_tx	pelvis_ty	pelvis_tz	hip_flexion_r	hip_adduction_r	hip_rotation_r	knee_angle_r	knee_angle_r_beta	ankle_angle_r	subtalar_angle_r	mtp_angle_r	hip_flexion_l	hip_adduction_l	hip_rotation_l	knee_angle_l	knee_angle_l_beta	ankle_angle_l	subtalar_angle_l	mtp_angle_l	lumbar_extension	lumbar_bending	lumbar_rotation	arm_flex_r	arm_add_r	arm_rot_r	elbow_flex_r	pro_sup_r	wrist_flex_r	wrist_dev_r	arm_flex_l	arm_add_l	arm_rot_l	elbow_flex_l	pro_sup_l	wrist_flex_l	wrist_dev_l
      1.90500000	    -32.69722994	      3.87866261	      1.07621128	     -0.43631258	      0.60363837	     -0.92540238	    101.16507480	    -15.95889143	     12.02130831	    104.04423645	      1.81591449	     37.15961221	      0.00000000	      0.00000000	    100.97764337	    -15.74195569	      2.35293097	    102.55991481	      1.79000819	     33.52282204	      0.00000000	      0.00000000	    -36.43663128	     -4.92708490	      2.41640374	    -33.00867501	    -54.26892318	     27.09509748	    103.96304351	     88.15086541	      0.00000000	      0.00000000	     16.72857417	    -66.31747413	     76.86882430	    109.67252557	     88.13334598	      0.00000000	      0.00000000
      1.91000000	    -33.32024205	      3.79727171	      2.64107277	     -0.43793266	      0.60264330	     -0.92970629	    102.06108060	    -17.74947729	     12.42241771	    104.13304108	      1.81746443	     37.04535669	      0.00000000	      0.00000000	    101.67053137	    -13.70074342	      2.17897804	    102.22054617	      1.78408509	     33.27167246	      0.00000000	      0.00000000	    -35.84373958	     -3.77484386	      0.51921273	    -31.76975642	    -55.26382062	     28.52421070	    104.20573056	     88.15264852	      0.00000000	      0.00000000	     13.61335944	    -66.38204318	     73.84746807	    109.79766839	     88.14021775	      0.00000000	      0.00000000
      1.91500000	    -33.35532794	      3.78126326	      2.63085345	     -0.43786675	      0.60256037	     -0.92963430	    102.07882673	    -17.72385582	     12.40125678	    104.12960129	      1.81740439	     37.07582301	      0.00000000	      0.00000000	    101.71218337	    -13.70664623	      2.20864347	    102.22551579	      1.78417183	     33.30049624	      0.00000000	      0.00000000	    -35.84994531	     -3.77836134	      1.24577846	    -33.55035217	    -54.60762304	     26.60788628	    104.27089275	     88.15577836	      0.00000000	      0.00000000	     16.40025355	    -66.12936211	     76.65806739	    109.69674885	     88.14253006	      0.00000000	      0.00000000
      1.92000000	    -33.35964585	      3.75360137	      2.64550082	     -0.43768803	      0.60262248	     -0.92957204	    102.05170336	    -17.72489498	     12.37720995	    104.13755017	      1.81754313	     37.09872179	      0.00000000	      0.00000000	    101.71440311	    -13.70250646	      2.23057641	    102.23233360	      1.78429082	     33.28556430	      0.00000000	      0.00000000	    -35.87795952	     -3.74203565	      1.22154224	    -33.46923360	    -54.62889745	     26.68225950	    104.27912589	     88.15637204	      0.00000000	      0.00000000	     16.27705630	    -66.11267805	     76.54823375	    109.67503736	     88.13633722	      0.00000000	      0.00000000
      1.92500000	    -33.36685640	      3.70638733	      2.70272604	     -0.43743803	      0.60271571	     -0.92957858	    102.01116612	    -17.78179681	     12.32974335	    104.14903615	      1.81774359	     37.09688387	      0.00000000	      0.00000000	    101.71470175	    -13.64588693	      2.27095505	    102.22366133	      1.78413946	     33.26816465	      0.00000000	      0.00000000	    -35.88908842	     -3.62971603	     -0.14191308	    -30.25042515	    -55.82715321	     30.08533707	    104.17521573	     88.18127692	      0.00000000	      0.00000000	     10.66762329	    -66.57210788	     70.90823255	    109.89731495	     88.13863703	      0.00000000	      0.00000000
      1.93000000	    -33.41872471	      3.73028563	      2.69754306	     -0.43732161	      0.60269617	     -0.92952062	    102.05053433	    -17.75991808	     12.35038882	    104.14798866	      1.81772531	     37.23638050	      0.00000000	      0.00000000	    101.73596263	    -13.64980319	      2.24666862	    102.21472523	      1.78398350	     33.36588641	      0.00000000	      0.00000000	    -35.89619947	     -3.64234528	     -0.29607644	    -30.16219956	    -55.84780141	     30.09950099	    104.17925951	     88.17286428	      0.00000000	      0.00000000	      9.45196401	    -66.56059639	     69.54653221	    109.86970638	     88.12420648	      0.00000000	      0.00000000
      1.93500000	    -33.34460810	      3.72895513	      2.68021095	     -0.43713101	      0.60291338	     -0.92944498	    101.95600836	    -17.74394758	     12.34374128	    104.14925088	      1.81774734	     37.15615827	      0.00000000	      0.00000000	    101.64668129	    -13.67583793	      2.24831933	    102.22424089	      1.78414958	     33.34134632	      0.00000000	      0.00000000	    -35.98092221	     -3.69933402	      1.12594653	    -33.28472797	    -54.68967680	     26.84155322	    104.28806896	     88.15029071	      0.00000000	      0.00000000	     15.96224087	    -66.15228088	     76.26133804	    109.67060601	     88.14196183	      0.00000000	      0.00000000
      1.94000000	    -33.39679593	      3.85004832	      2.69297070	     -0.43692944	      0.60300047	     -0.92944968	    102.03156644	    -17.72511064	     12.49581366	    104.15082069	      1.81777474	     37.18645721	      0.00000000	      0.00000000	    101.60533046	    -13.68319219	      2.08246028	    102.18933934	      1.78354043	     33.36127869	      0.00000000	      0.00000000	    -35.94451069	     -3.75699886	     -0.82525775	    -28.74347851	    -56.28853778	     31.65163940	    104.12261779	     88.15125049	      0.00000000	      0.00000000	      8.09840340	    -66.74010041	     68.36617825	    109.95125099	     88.13879422	      0.00000000	      0.00000000
      1.94500000	    -33.38133074	      3.71826715	      2.64314893	     -0.43689845	      0.60308532	     -0.92923367	    101.93487514	    -17.64882494	     12.33929110	    104.13457710	      1.81749124	     37.17953818	      0.00000000	      0.00000000	    101.64837020	    -13.72511596	      2.27122867	    102.20117131	      1.78374694	     33.35320809	      0.00000000	      0.00000000	    -36.00549501	     -3.71337378	      1.18416117	    -33.43142729	    -54.62226226	     26.62240999	    104.33166082	     88.15638708	      0.00000000	      0.00000000	     15.90372039	    -66.15478937	     76.17201740	    109.64481930	     88.14016804	      0.00000000	      0.00000000
      1.95000000	    -33.38926285	      3.77559318	      2.68133149	     -0.43661395	      0.60330104	     -0.92928299	    101.91867705	    -17.70962132	     12.37710403	    104.10672838	      1.81700518	     37.20653247	      0.00000000	      0.00000000	    101.58523563	    -13.70467937	      2.16728341	    102.18696473	      1.78349899	     33.35119694	      0.00000000	      0.00000000	    -35.98762214	     -3.70983831	     -0.44805161	    -29.48571500	    -56.02052722	     30.88951171	    104.14488897	     88.14907652	      0.00000000	      0.00000000	      9.63152546	    -66.65259584	     69.94150195	    109.87666640	     88.14239240	      0.00000000	      0.00000000
